<svg version="1.1" xmlns="http://www.w3.org/2000/svg" viewBox="0 0 230.73626708984375 230.73626708984375" width="230.73626708984375" height="230.73626708984375">
  <!-- svg-source:excalidraw -->
  
  <defs>
    <style class="style-fonts">
      @font-face {
        font-family: "Virgil";
        src: url("https://excalidraw.com/Virgil.woff2");
      }
      @font-face {
        font-family: "Cascadia";
        src: url("https://excalidraw.com/Cascadia.woff2");
      }
    </style>
  </defs>
  <rect x="0" y="0" width="230.73626708984375" height="230.73626708984375" fill="#ffffff"/><g stroke-linecap="round" transform="translate(10 10) rotate(0 105.36813354492188 105.36813354492188)"><path d="M139.99 6 C151.92 8.51, 164.48 16.69, 174.22 24.82 C183.96 32.95, 192.38 43.8, 198.43 54.78 C204.48 65.76, 209.04 78.17, 210.52 90.72 C212 103.26, 210.4 117.7, 207.31 130.06 C204.23 142.41, 199.18 154.39, 192 164.84 C184.81 175.29, 174.72 185.7, 164.21 192.76 C153.7 199.82, 141.27 204.31, 128.91 207.17 C116.55 210.03, 102.69 211.62, 90.03 209.92 C77.38 208.21, 63.98 203.15, 53 196.94 C42.02 190.73, 32.12 182.64, 24.17 172.68 C16.22 162.72, 9.46 149.29, 5.31 137.17 C1.16 125.05, -1.31 112.35, -0.75 99.94 C-0.2 87.53, 3.17 74.18, 8.65 62.71 C14.13 51.23, 22.97 40.01, 32.11 31.08 C41.25 22.16, 52.09 14.45, 63.47 9.16 C74.84 3.87, 85.62 -0.84, 100.35 -0.68 C115.09 -0.52, 141.58 6.7, 151.88 10.1 C162.18 13.49, 162.99 18, 162.16 19.69 M150.15 10.44 C161.82 13.87, 174.16 22.52, 182.89 31.7 C191.63 40.89, 197.91 53.81, 202.55 65.55 C207.2 77.28, 210.44 89.31, 210.78 102.13 C211.12 114.95, 209.22 130.51, 204.61 142.46 C200.01 154.4, 191.34 164.6, 183.14 173.79 C174.93 182.98, 166.49 191.42, 155.38 197.6 C144.27 203.78, 129.18 209.34, 116.47 210.88 C103.76 212.42, 91.28 210.02, 79.1 206.86 C66.92 203.69, 53.87 199.42, 43.37 191.9 C32.87 184.37, 23.04 172.56, 16.09 161.7 C9.13 150.84, 4.23 139.03, 1.65 126.75 C-0.94 114.46, -1.77 100.29, 0.58 87.99 C2.93 75.69, 9.28 63.75, 15.76 52.97 C22.24 42.19, 29.58 31.34, 39.46 23.31 C49.34 15.29, 62.87 8.51, 75.05 4.82 C87.23 1.14, 99.93 0.43, 112.53 1.18 C125.13 1.93, 144.5 7.72, 150.63 9.33 C156.77 10.95, 149.87 9.05, 149.32 10.87" stroke="#000000" stroke-width="2" fill="none"/></g><g stroke-linecap="round"><g transform="translate(114.49002075195312 117.57351684570312) rotate(0 -25.795133669362386 28.743687178422448)"><path d="M-0.65 -0.79 C-9.27 8.77, -42.83 48.49, -51.27 58.01 M1.21 1.41 C-7.57 10.56, -43.19 46.89, -52.05 56.16" stroke="#000000" stroke-width="2" fill="none"/></g><g transform="translate(114.49002075195312 117.57351684570312) rotate(0 -25.795133669362386 28.743687178422448)"><path d="M-50.33 55.43 L-46.87 40.88 L-36.1 48.83 L-50.25 55.12" stroke="none" stroke-width="0" fill="#000000" fill-rule="evenodd"/><path d="M-53.04 56.55 C-49.83 51.74, -50.3 46.84, -48.32 42.52 M-51.6 55.43 C-50.09 51.72, -49.32 45.96, -46.97 41.58 M-47.77 42.8 C-44.64 46.21, -40.86 48.27, -38.04 50.45 M-47.03 42.42 C-44.3 43.96, -42.41 47.02, -38.4 51 M-39.24 49.77 C-40.93 52.36, -45.15 53.01, -52.77 55.66 M-38.74 50.8 C-42.62 53.59, -48.26 55.28, -52.09 56.49 M-52.05 56.16 C-52.05 56.16, -52.05 56.16, -52.05 56.16 M-52.05 56.16 C-52.05 56.16, -52.05 56.16, -52.05 56.16" stroke="#000000" stroke-width="2" fill="none"/></g></g><mask/><g stroke-linecap="round"><g transform="translate(114.304019431998 118.58186477884209) rotate(0 -1.1090985131123858 -42.98314997978068)"><path d="M-0.65 -0.79 C-1.04 -15.14, -1.68 -71.05, -1.9 -85.45 M1.21 1.41 C0.65 -13.35, -2.05 -72.65, -2.68 -87.3" stroke="#000000" stroke-width="4" fill="none"/></g><g transform="translate(114.304019431998 118.58186477884209) rotate(0 -1.1090985131123858 -42.98314997978068)"><path d="M-0.95 -88.03 L4.53 -75.1 L-6.47 -75.42 L-0.88 -88.33" stroke="none" stroke-width="0" fill="#000000" fill-rule="evenodd"/><path d="M-3.67 -86.9 C0.38 -82.45, 0.58 -78.08, 3.08 -73.46 M-2.23 -88.02 C-0.05 -82.28, 1.42 -78.56, 4.43 -74.4 M3.62 -73.18 C-0.84 -72.8, -4.6 -73.61, -8.41 -73.8 M4.36 -73.56 C1.14 -74.14, -2.88 -73.33, -8.77 -73.24 M-9.61 -74.47 C-6.8 -76.09, -6.61 -79.73, -3.4 -87.79 M-9.12 -73.45 C-5.68 -77.89, -3.98 -83.34, -2.72 -86.96 M-2.68 -87.3 C-2.68 -87.3, -2.68 -87.3, -2.68 -87.3 M-2.68 -87.3 C-2.68 -87.3, -2.68 -87.3, -2.68 -87.3" stroke="#000000" stroke-width="4" fill="none"/></g></g><mask/></svg>